<?xml version="1.0" encoding="UTF-8" standalone="no"?>
<!-- Created with Inkscape (http://www.inkscape.org/) -->

<svg
   xmlns:dc="http://purl.org/dc/elements/1.1/"
   xmlns:cc="http://creativecommons.org/ns#"
   xmlns:rdf="http://www.w3.org/1999/02/22-rdf-syntax-ns#"
   xmlns:svg="http://www.w3.org/2000/svg"
   xmlns="http://www.w3.org/2000/svg"
   xmlns:sodipodi="http://sodipodi.sourceforge.net/DTD/sodipodi-0.dtd"
   xmlns:inkscape="http://www.inkscape.org/namespaces/inkscape"
   width="800"
   height="400"
   viewBox="0 0 800.00001 400.00001"
   id="svg2"
   version="1.1"
   inkscape:version="0.91 r13725"
   sodipodi:docname="ci-plates.svg"
   inkscape:export-filename="/home/feryardiant/Workspaces/Projects/Personal/Feryardiant.me/Site/source/asset/_images/ci-plates-cover.png"
   inkscape:export-xdpi="90"
   inkscape:export-ydpi="90">
  <defs
     id="defs4">
    <clipPath
       id="clipPath18"
       clipPathUnits="userSpaceOnUse">
      <path
         inkscape:connector-curvature="0"
         id="path20"
         d="m 0,9.53125 3290,0 0,970 -3290,0 0,-970 z" />
    </clipPath>
  </defs>
  <sodipodi:namedview
     id="base"
     pagecolor="#ffffff"
     bordercolor="#666666"
     borderopacity="1.0"
     inkscape:pageopacity="0.0"
     inkscape:pageshadow="2"
     inkscape:zoom="1"
     inkscape:cx="159"
     inkscape:cy="222.5"
     inkscape:document-units="px"
     inkscape:current-layer="layer1"
     showgrid="false"
     units="px"
     inkscape:window-width="1366"
     inkscape:window-height="703"
     inkscape:window-x="0"
     inkscape:window-y="0"
     inkscape:window-maximized="1" />
  <metadata
     id="metadata7">
    <rdf:RDF>
      <cc:Work
         rdf:about="">
        <dc:format>image/svg+xml</dc:format>
        <dc:type
           rdf:resource="http://purl.org/dc/dcmitype/StillImage" />
        <dc:title />
      </cc:Work>
    </rdf:RDF>
  </metadata>
  <g
     inkscape:label="Layer 1"
     inkscape:groupmode="layer"
     id="layer1"
     transform="translate(0,-652.36216)">
    <rect
       style="opacity:1;fill:#19242f;fill-opacity:1;stroke:none;stroke-width:2;stroke-linecap:round;stroke-linejoin:round;stroke-miterlimit:4;stroke-dasharray:none;stroke-dashoffset:0;stroke-opacity:1"
       id="rect4228"
       width="800"
       height="400"
       x="0"
       y="652.36218" />
    <g
       id="g4261"
       transform="translate(-20.155521,17.523448)">
      <path
         d="m 586.78494,780.55798 c 0.29725,8.12012 -9.7125,11.3135 -14.08263,5.19475 -5.581,-7.81738 0.11775,-16.23976 0.91263,-24.51613 0.99612,-10.37637 -4.96488,-20.44475 -12.36763,-26.47012 4.07763,7.1875 -1.2935,16.69387 -5.586,22.00637 -4.165,5.15625 -9.229,9.45887 -13.82275,14.13613 -4.9375,5.02887 -9.6875,10.32274 -13.74606,16.22512 -8.12012,11.8125 -13.08985,26.665 -9.43262,41.40237 3.64746,14.7265 15.34618,24.10155 28.55856,27.41649 -6.66988,-3.14403 -12.90475,-11.12744 -12.91988,-19.29636 -0.0136,-8.90625 5.16163,-16.46487 11.59763,-21.43113 -0.7725,3.18838 -1.19625,6.10351 0.72262,8.955 1.78225,2.65088 4.90238,3.93613 7.85113,3.23738 6.89012,-1.64012 7.2075,-9.8975 3.12012,-14.7125 -4.03762,-4.76025 -7.94387,-10.141 -6.40625,-17.05025 0.76613,-3.46238 2.71975,-6.70363 5.18988,-9.02338 -1.89888,5.44475 3.501,10.811 7.05137,13.48088 6.17238,4.63388 12.935,8.14013 18.60888,13.57525 5.96088,5.71237 10.36612,13.4375 9.48237,22.3975 -0.96775,9.70649 -8.04787,16.46381 -15.98137,19.8725 16.77237,-4.03369 34.10637,-18.23238 34.46237,-38.51513 0.2925,-16.68999 -10.20512,-29.53125 -23.21237,-36.88474"
         style="fill:#dd4814;fill-opacity:1;fill-rule:nonzero;stroke:none"
         id="path22"
         inkscape:connector-curvature="0" />
      <path
         inkscape:connector-curvature="0"
         id="path24"
         d="m 500.07358,877.00864 -1.76172,12.13868 c -0.1075,0.90375 -0.0554,1.47068 0.28711,2.32031 -1.64625,-1.24462 -4.59367,-1.64063 -6.57617,-1.64063 -9.41875,0 -14.69383,4.47659 -16.39258,16.38672 -0.23005,1.41987 -0.2832,2.72365 -0.2832,3.91602 0,8.67625 5.10289,11.96289 11.96289,11.96289 2.89625,0 5.72695,-1.24414 7.93945,-3.11914 l 0.56641,2.21094 5.44531,0 6.35156,-44.17579 -7.53906,0 z m 130.86523,0 c -0.45495,0 -0.45596,0.0538 -0.50976,0.625 l -1.01953,7.02735 c -0.0588,0.51263 -0.0592,0.51367 0.39453,0.51367 l 7.375,0 c 0.4537,0 0.45292,-10e-4 0.51172,-0.51367 l 1.01562,-7.02735 c 0.0575,-0.5712 0.0592,-0.625 -0.39453,-0.625 l -7.37305,0 z m 24.96485,1.64649 -7.93946,2.21094 -1.41992,9.86914 -4.5918,0 -0.79101,5.72656 5.32226,0 c -0.5075,0.73775 -1.01356,1.69924 -1.07226,2.26562 l -2.04102,14.0625 c -0.1125,0.625 -0.11328,1.25099 -0.11328,1.81836 0,5.38525 3.96922,7.48438 8.73047,7.48438 4.42375,0 7.99859,-1.24409 10.77734,-3.57422 l -3.51562,-4.30664 c -1.7575,1.07475 -2.94914,1.86914 -5.55664,1.86914 -1.87,0 -2.7793,-0.79439 -2.7793,-2.49414 0,-0.22512 -2e-4,-0.51313 0.0586,-0.79688 l 2.37695,-16.32812 8.625,0 2.60742,-5.72656 -10.43555,0 1.75782,-12.08008 z m -224.6875,0.73242 c -13.10013,0 -18.48638,7.37252 -20.46875,21.32227 -0.28225,1.875 -0.45313,3.75106 -0.45313,5.61718 0,8.22263 3.23146,15.76563 14.79883,15.76563 8.78888,0 14.00906,-4.25189 17.07031,-9.52539 l -5.16211,-3.46289 c -3.345,5.27338 -6.97662,6.69531 -11,6.69531 -6.24025,0 -8.05078,-3.63035 -8.05078,-9.07422 0,-1.81587 0.2236,-3.857 0.50586,-6.01562 1.36287,-9.41362 3.79881,-14.79883 11.85156,-14.79883 5.4435,0 7.20313,2.44135 7.20313,6.86523 l 0,0.10742 7.20117,0 c 0.0587,-0.45012 0.0586,-0.96188 0.0586,-1.41601 0,-6.46 -3.91093,-12.08008 -13.55468,-12.08008 z m 111.03515,0.9082 -0.67773,4.82032 4.19336,0 -4.53516,31.25 -4.19922,0 -0.67969,4.81836 15.99219,0 0.67774,-4.81836 -4.18946,0 4.53125,-31.25 4.19922,0 0.67774,-4.82032 -15.99024,0 z m -80.80468,9.53125 c -10.49376,0 -15.03,5.38577 -16.5625,16.10352 -0.16625,1.25 -0.2793,2.55327 -0.2793,3.74414 0,6.91513 3.2275,12.41797 12.1875,12.41797 10.49375,0 15.08859,-5.61473 16.62109,-16.16211 0.16625,-1.36275 0.28321,-2.60742 0.28321,-3.85742 0,-7.03125 -3.34875,-12.2461 -12.25,-12.2461 z m 62.7246,0 c -10.37625,0 -15.25039,4.93215 -16.90039,16.10352 -0.16625,1.3575 -0.2832,2.66504 -0.2832,3.91016 0,7.65625 3.91641,12.25195 12.53516,12.25195 6.68875,0 11.67875,-2.77336 14.34375,-7.88086 l -5.72657,-2.32422 c -1.64,2.48976 -3.85257,4.19336 -7.76757,4.19336 -4.195,0 -5.89844,-1.75634 -5.89844,-5.49609 0,-0.74275 0.0576,-1.53416 0.17383,-2.44141 l 20.46875,0 c 0.28375,-2.0415 0.62109,-4.31309 0.62109,-6.01172 0,-5.669 -2.14766,-12.30469 -11.56641,-12.30469 z m 50.4043,0 c -8.10625,0 -15.02539,4.19483 -15.02539,13.09571 0,2.5 0.90367,4.65424 1.98242,6.01562 -1.69875,0.90375 -3.17383,2.49029 -3.17383,4.53516 0,0.90376 0.33774,1.87058 1.02149,2.7207 -3.40375,2.04638 -5.50391,5.44531 -5.50391,9.41406 0,7.66113 8.00055,9.30274 14.12305,9.30274 7.715,0 16.89844,-1.75823 16.89844,-11.56836 0,-3.34963 -2.09407,-5.95697 -8.16407,-7.08985 l -10.94726,-2.04101 c -1.24625,-0.229 -1.52734,-0.62603 -1.52734,-1.19727 -10e-6,-0.84526 0.50632,-1.29882 1.36132,-1.29882 0.2825,0 0.50742,0.0595 0.73242,0.11328 1.47375,0.34124 3.18,0.50781 4.9375,0.50781 7.88125,0 14.91602,-3.39847 14.91602,-12.24609 0,-1.25 -0.22867,-2.77825 -0.79492,-4.14063 0.96125,0.45365 2.21,0.51172 2.71875,0.51172 l 1.92969,0 2.03906,-6.63477 -5.4961,0 -3.9707,1.92383 c -2.21125,-1.415 -5.22039,-1.92383 -8.05664,-1.92383 z m 35.63086,0 c -3.17875,0 -6.01234,0.90777 -9.52734,3.68164 l -0.51368,-2.77343 -6.23437,0 -4.36914,30.44922 7.54297,0 3.29101,-22.79688 c 2.2125,-1.36238 4.93672,-2.66211 7.26172,-2.66211 2.83125,0 3.85742,1.69914 3.85742,4.30664 0,0.625 -0.0583,1.3038 -0.17578,1.98242 l -2.77929,19.16993 7.54296,0 2.7793,-19.16993 c 0.1125,-0.96087 0.23047,-1.87118 0.23047,-2.77343 0,-5.39113 -2.55375,-9.41407 -8.90625,-9.41407 z m 71.16016,0 c -10.38,0 -15.25844,4.93215 -16.89844,16.10352 -0.17125,1.3575 -0.2832,2.66504 -0.2832,3.91016 0,7.65625 3.91054,12.25195 12.52929,12.25195 6.69375,0 11.68446,-2.77336 14.34571,-7.88086 l -5.72852,-2.32422 c -1.64,2.48976 -3.85133,4.19336 -7.76758,4.19336 -4.19375,0 -5.89258,-1.75634 -5.89258,-5.49609 0,-0.74275 0.0537,-1.53416 0.16993,-2.44141 l 20.46875,0 c 0.28375,-2.0415 0.625,-4.31309 0.625,-6.01172 0,-5.669 -2.15836,-12.30469 -11.56836,-12.30469 z m 32.4375,0 c -2.72,0 -5.27242,0.90725 -7.82618,3.34375 l -0.45507,-2.43554 -6.24024,0 -4.36523,30.44922 7.59765,0 3.34961,-23.30469 c 1.9875,-1.19138 4.2525,-1.5332 6.40625,-1.5332 1.3625,0 2.66711,0.11669 3.91211,0.2832 l 0.96485,-6.40625 c -1.1325,-0.22513 -2.265,-0.39649 -3.34375,-0.39649 z m -89.55469,0.90821 -0.79688,5.72656 5.50391,0 c -0.455,0.50788 -0.73817,1.18797 -0.79687,1.64648 l -2.26954,15.70899 c -0.10755,0.73237 -0.16601,1.35742 -0.16601,1.98242 0,3.96875 2.15117,5.89648 6.57617,5.89648 l 3.85742,0 0.84961,-6.18164 -2.4414,0 c -0.85,0 -1.13282,-0.2275 -1.13282,-0.90625 0,-0.22999 -2e-4,-0.51364 0.0586,-0.79101 l 3.29101,-23.08203 -12.5332,0 z m -133.08203,4.87304 c 2.44125,0 4.31156,0.40178 6.07031,1.36329 l -2.55469,17.46484 c -2.55375,1.52888 -5.04742,1.875 -6.57617,1.875 -4.14,0 -5.27539,-2.15911 -5.27539,-5.61524 0,-1.30863 0.16648,-2.83742 0.39648,-4.48242 1.30375,-9.01376 4.19946,-10.60547 7.93946,-10.60547 z m 82.55859,0.16993 c 3.40375,0 5.04883,1.42181 5.04883,4.19531 0,4.19876 -2.38227,6.46875 -6.63477,6.46875 -3.29125,0 -5.10351,-1.19622 -5.10351,-4.02735 0,-4.19475 2.43695,-6.63671 6.68945,-6.63671 z m -113.18945,0.0586 c 3.74125,0 5.61719,1.53524 5.61719,6.17773 0,1.13876 -0.1168,2.4459 -0.3418,3.91602 -1.1325,7.76863 -3.57406,10.15039 -8.16406,10.15039 -3.68625,0 -5.50391,-1.53134 -5.50391,-6.12109 0,-1.13775 0.1118,-2.49554 0.3418,-4.0293 1.1325,-7.70987 3.40328,-10.09375 8.05078,-10.09375 z m 62.73047,0 c 3.34,0 4.99023,1.75888 4.99023,5.10351 0,0.5665 -0.0594,1.1915 -0.17187,1.875 l -12.47461,0 c 1.245,-5.33738 3.345,-6.97851 7.65625,-6.97851 z m 157.19336,0 c 3.345,0 4.99023,1.75888 4.99023,5.10351 0,0.5665 -0.0594,1.1915 -0.17187,1.875 l -12.47461,0 c 1.25,-5.33738 3.345,-6.97851 7.65625,-6.97851 z m -116.65625,23.48242 10.66015,1.97656 c 2.15375,0.39987 2.88867,1.19727 2.88867,2.61329 0,4.59524 -4.93015,5.16015 -8.5039,5.16015 -5.445,0 -7.48633,-1.30226 -7.48633,-4.19726 0,-2.54988 0.73641,-3.74174 2.44141,-5.55274 z"
         style="fill:#ffffff;fill-opacity:1;fill-rule:nonzero;stroke:none" />
    </g>
    <g
       id="g4256"
       transform="translate(-20.155521,17.523448)">
      <path
         inkscape:connector-curvature="0"
         id="path4183"
         d="m 215.48633,786.21566 a 48.057549,14.839622 0 0 0 -48.0586,14.83985 48.057549,14.839622 0 0 0 48.0586,14.83984 48.057549,14.839622 0 0 0 48.05664,-14.83984 48.057549,14.839622 0 0 0 -48.05664,-14.83985 z m 0,4.34961 a 35.841084,10.489784 0 0 1 35.83984,10.49024 35.841084,10.489784 0 0 1 -35.83984,10.48828 35.841084,10.489784 0 0 1 -35.8418,-10.48828 35.841084,10.489784 0 0 1 35.8418,-10.49024 z m -47.41992,17.83204 a 48.057549,14.839622 0 0 0 -0.63868,2.37109 48.057549,14.839622 0 0 0 48.0586,14.83984 48.057549,14.839622 0 0 0 48.05664,-14.83984 48.057549,14.839622 0 0 0 -0.64063,-2.29883 48.057549,14.839622 0 0 1 -47.41601,12.46875 48.057549,14.839622 0 0 1 -47.41992,-12.54101 z m 0,9.52734 a 48.057549,14.839622 0 0 0 -0.63868,2.37109 48.057549,14.839622 0 0 0 48.0586,14.83985 48.057549,14.839622 0 0 0 48.05664,-14.83985 48.057549,14.839622 0 0 0 -0.64063,-2.29883 48.057549,14.839622 0 0 1 -47.41601,12.46875 48.057549,14.839622 0 0 1 -47.41992,-12.54101 z m 0,10.08594 c -0.41807,0.78381 -0.63165,1.57672 -0.63868,2.37109 -2e-4,4.22385 5.71448,8.03578 14.88672,10.73828 8.62546,2.54139 7.3442,7.83789 33.17188,7.83789 25.82768,0 24.79787,-5.33148 33.44922,-7.92187 9.00823,-2.69724 14.60762,-6.47365 14.60742,-10.6543 -0.02,-0.77025 -0.2342,-1.53885 -0.64063,-2.29883 -3.76546,7.18423 -23.84742,12.46508 -47.41601,12.46875 -23.64567,-0.009 -43.75731,-5.32761 -47.41992,-12.54101 z"
         style="opacity:1;fill:#fe4042;fill-opacity:1;stroke:none;stroke-width:2;stroke-linecap:round;stroke-linejoin:round;stroke-miterlimit:4;stroke-dasharray:none;stroke-dashoffset:0;stroke-opacity:1" />
      <text
         sodipodi:linespacing="0%"
         id="text4224"
         y="916.66187"
         x="215.46579"
         style="font-style:normal;font-weight:normal;font-size:71.49650574px;line-height:0%;font-family:sans-serif;text-align:center;letter-spacing:0px;word-spacing:0px;text-anchor:middle;fill:#fe4042;fill-opacity:1;stroke:none;stroke-width:1px;stroke-linecap:butt;stroke-linejoin:miter;stroke-opacity:1"
         xml:space="preserve"><tspan
           style="font-style:normal;font-variant:normal;font-weight:normal;font-stretch:normal;font-family:Museo;-inkscape-font-specification:Museo;fill:#fe4042;fill-opacity:1"
           y="916.66187"
           x="215.46579"
           id="tspan4226"
           sodipodi:role="line">Plates</tspan></text>
    </g>
    <path
       style="opacity:1;fill:#ffffff;fill-opacity:1;stroke:none;stroke-width:2;stroke-linecap:round;stroke-linejoin:round;stroke-miterlimit:4;stroke-dasharray:none;stroke-dashoffset:0;stroke-opacity:1"
       d="m 356.98382,830.88563 0,20.13934 -20.13934,0 0,1.72132 20.13934,0 0,20.13934 1.72132,0 0,-20.13934 20.13934,0 0,-1.72132 -20.13934,0 0,-20.13934 -1.72132,0 z"
       id="rect4265"
       inkscape:connector-curvature="0" />
  </g>
</svg>
